<svg width="32" height="32" viewBox="0 0 32 32" fill="none" xmlns="http://www.w3.org/2000/svg">
  <defs>
    <radialGradient id="starGlow">
      <stop offset="0%" style="stop-color:#fef3c7;stop-opacity:1" />
      <stop offset="50%" style="stop-color:#fde68a;stop-opacity:0.8" />
      <stop offset="100%" style="stop-color:#fbbf24;stop-opacity:0" />
    </radialGradient>

    <linearGradient id="starGradient" x1="0%" y1="0%" x2="100%" y2="100%">
      <stop offset="0%" style="stop-color:#fef3c7;stop-opacity:1" />
      <stop offset="50%" style="stop-color:#fde68a;stop-opacity:1" />
      <stop offset="100%" style="stop-color:#fbbf24;stop-opacity:1" />
    </linearGradient>

    <filter id="glow">
      <feGaussianBlur stdDeviation="1.5" result="coloredBlur"/>
      <feMerge>
        <feMergeNode in="coloredBlur"/>
        <feMergeNode in="SourceGraphic"/>
      </feMerge>
    </filter>
  </defs>

  <!-- Outer glow -->
  <circle cx="16" cy="16" r="12" fill="url(#starGlow)" opacity="0.6"/>

  <!-- Main star shape (8-pointed) -->
  <g filter="url(#glow)">
    <!-- Vertical beam -->
    <path d="M 16 6 L 17 15 L 18 6 L 17 15 L 16 6 Z" fill="url(#starGradient)"/>
    <path d="M 16 26 L 17 17 L 18 26 L 17 17 L 16 26 Z" fill="url(#starGradient)"/>

    <!-- Horizontal beam -->
    <path d="M 6 16 L 15 17 L 6 18 L 15 17 L 6 16 Z" fill="url(#starGradient)"/>
    <path d="M 26 16 L 17 17 L 26 18 L 17 17 L 26 16 Z" fill="url(#starGradient)"/>

    <!-- Diagonal beams -->
    <path d="M 9 9 L 15 15 L 9 10 L 15 15 L 9 9 Z" fill="url(#starGradient)"/>
    <path d="M 23 23 L 17 17 L 23 22 L 17 17 L 23 23 Z" fill="url(#starGradient)"/>
    <path d="M 23 9 L 17 15 L 22 9 L 17 15 L 23 9 Z" fill="url(#starGradient)"/>
    <path d="M 9 23 L 15 17 L 10 23 L 15 17 L 9 23 Z" fill="url(#starGradient)"/>

    <!-- Center core -->
    <circle cx="16" cy="16" r="3" fill="#fef3c7"/>
    <circle cx="16" cy="16" r="2" fill="#ffffff" opacity="0.8"/>
  </g>

  <!-- Sparkle accents -->
  <circle cx="16" cy="8" r="0.8" fill="#ffffff" opacity="0.9">
    <animate attributeName="opacity" values="0.5;1;0.5" dur="1.5s" repeatCount="indefinite"/>
  </circle>
  <circle cx="24" cy="16" r="0.8" fill="#ffffff" opacity="0.9">
    <animate attributeName="opacity" values="1;0.5;1" dur="1.8s" repeatCount="indefinite"/>
  </circle>
  <circle cx="16" cy="24" r="0.8" fill="#ffffff" opacity="0.9">
    <animate attributeName="opacity" values="0.5;1;0.5" dur="1.6s" repeatCount="indefinite"/>
  </circle>
  <circle cx="8" cy="16" r="0.8" fill="#ffffff" opacity="0.9">
    <animate attributeName="opacity" values="1;0.5;1" dur="2s" repeatCount="indefinite"/>
  </circle>
</svg>
